# xmcd
#
# Track frame offsets:
#	150
#	14288
#	30342
#	50513
#	64748
#	84779
#	107078
#	122310
#	138841
#	156458
#
# Disc length: 2711 seconds
#
# Revision: 0
# Processed by: cddbd v1.5.2PL0 Copyright (c) Steve Scherf et al.
# Submitted via: EasyCDDAExtractor 5.0.4.1
#
DISCID=710a950a
DTITLE=Sean Chambers Band - Live from the Long Island Blues Warehouse
DYEAR=2011
DGENRE=Blues Rock
TTITLE0=Dixie 45
TTITLE1=Love Can Find a Way
TTITLE2=Full Moon on Main Street
TTITLE3=Strong Temptation
TTITLE4=Dust My Broom
TTITLE5=Crazy for Loving You
TTITLE6=Danger Zone
TTITLE7=Too Much Blues
TTITLE8=Hip Shake Boogie
TTITLE9=In the Winter Time
EXTD=
EXTT0=
EXTT1=
EXTT2=
EXTT3=
EXTT4=
EXTT5=
EXTT6=
EXTT7=
EXTT8=
EXTT9=
PLAYORDER=
